<svg width="25" height="24" viewBox="0 0 25 24" fill="none" xmlns="http://www.w3.org/2000/svg">
<path d="M18.8531 15.9999C18.4041 16.0016 17.9601 16.094 17.5477 16.2716C17.1352 16.4492 16.763 16.7082 16.4531 17.0333L8.32647 12.9666C8.52638 12.3604 8.52638 11.7061 8.32647 11.0999L16.4665 6.95992C17.0495 7.57434 17.8402 7.95002 18.6848 8.01396C19.5294 8.07789 20.3676 7.8255 21.0365 7.30585C21.7054 6.78619 22.1572 6.0364 22.3041 5.2022C22.4509 4.368 22.2824 3.50899 21.8312 2.79214C21.38 2.07529 20.6784 1.5518 19.8627 1.32343C19.0471 1.09506 18.1756 1.17811 17.4178 1.55646C16.66 1.93481 16.0699 2.58141 15.7622 3.37059C15.4546 4.15977 15.4513 5.03515 15.7531 5.82658L7.69314 9.92659C7.25783 9.39422 6.66853 9.00951 6.00601 8.8252C5.34349 8.64089 4.64018 8.66601 3.99249 8.89709C3.3448 9.12818 2.78444 9.55394 2.38821 10.116C1.99199 10.6781 1.7793 11.3489 1.7793 12.0366C1.7793 12.7243 1.99199 13.3951 2.38821 13.9572C2.78444 14.5192 3.3448 14.945 3.99249 15.1761C4.64018 15.4072 5.34349 15.4323 6.00601 15.248C6.66853 15.0637 7.25783 14.679 7.69314 14.1466L15.7331 18.1933C15.5973 18.558 15.5273 18.944 15.5265 19.3333C15.5265 19.9925 15.722 20.637 16.0882 21.1852C16.4545 21.7333 16.9751 22.1606 17.5842 22.4128C18.1933 22.6651 18.8635 22.7312 19.5101 22.6025C20.1567 22.4739 20.7507 22.1564 21.2168 21.6903C21.683 21.2241 22.0005 20.6302 22.1291 19.9836C22.2577 19.3369 22.1917 18.6667 21.9394 18.0576C21.6871 17.4486 21.2599 16.928 20.7117 16.5617C20.1635 16.1954 19.5191 15.9999 18.8598 15.9999H18.8531Z" fill="white"/>
</svg>
