<svg width="22" height="21" viewBox="0 0 22 21" fill="none" xmlns="http://www.w3.org/2000/svg">
<path d="M9.13994 0.00927734C9.8471 0.00927734 10.2502 0.713793 10.2502 1.42131V5.75749H9.35499C9.1809 5.32691 8.86254 4.97031 8.45449 4.74881C8.04643 4.52731 7.57408 4.4547 7.11838 4.54342C6.66269 4.63215 6.25202 4.87668 5.95677 5.23511C5.66151 5.59354 5.50004 6.04356 5.50004 6.50804C5.50004 6.97251 5.66151 7.42253 5.95677 7.78096C6.25202 8.13939 6.66269 8.38393 7.11838 8.47265C7.57408 8.56137 8.04643 8.48876 8.45449 8.26726C8.86254 8.04576 9.1809 7.68917 9.35499 7.25859H10.2502V18.1646C10.2502 18.761 9.99814 19.3544 9.46702 19.6256C8.98541 19.878 8.45032 20.0112 7.90665 20.0139C6.3963 20.0139 5.27304 19.2494 4.54987 18.3447C4.04904 17.7204 3.6998 16.9884 3.52964 16.2061C3.06254 16.0682 2.62995 15.8329 2.26034 15.5156C1.55018 14.9042 0.998047 13.9235 0.998047 12.4784C0.998047 11.7229 1.05206 11.0644 1.18809 10.511H5.39907C6.07723 10.511 6.63936 11.0113 6.73438 11.6628C6.3057 11.8402 5.95198 12.1612 5.73377 12.5708C5.51556 12.9804 5.44642 13.4532 5.53818 13.9082C5.62995 14.3631 5.87691 14.7721 6.23681 15.0649C6.59671 15.3578 7.04716 15.5165 7.51107 15.5137C7.97498 15.5109 8.4235 15.3469 8.77988 15.0498C9.13625 14.7526 9.37832 14.3407 9.46465 13.8847C9.55097 13.4287 9.47619 12.9568 9.25311 12.5498C9.03002 12.1428 8.6725 11.8261 8.24173 11.6538C8.18919 10.9354 7.86689 10.2635 7.33959 9.77307C6.81229 9.28262 6.11903 9.00997 5.39907 9.00987H2.03829C2.18807 8.88601 2.3548 8.78424 2.5334 8.70765C2.4303 8.33994 2.37055 7.96142 2.35536 7.57982C2.32235 6.84428 2.43238 6.07872 2.65043 5.39722C2.86648 4.72673 3.20856 4.07325 3.68867 3.62192C3.98984 3.32831 4.3714 3.13082 4.78493 3.05451C4.98397 2.21389 5.49109 1.51938 6.13824 1.01601C6.96943 0.36754 8.05869 0.00927734 9.13894 0.00927734H9.13994ZM11.7505 15.0143H13.4009C14.157 15.0143 14.882 14.7138 15.4167 14.1789C15.9513 13.644 16.2516 12.9186 16.2516 12.1622V10.3659C16.682 10.1917 17.0384 9.87317 17.2598 9.46491C17.4812 9.05665 17.5537 8.58406 17.465 8.12814C17.3764 7.67221 17.132 7.26134 16.7737 6.96594C16.4155 6.67053 15.9657 6.50899 15.5014 6.50899C15.0372 6.50899 14.5874 6.67053 14.2291 6.96594C13.8709 7.26134 13.6265 7.67221 13.5378 8.12814C13.4491 8.58406 13.5217 9.05665 13.7431 9.46491C13.9645 9.87317 14.3209 10.1917 14.7512 10.3659V12.1622C14.7512 12.5205 14.609 12.8641 14.3557 13.1175C14.1025 13.3708 13.7591 13.5132 13.4009 13.5132H11.7505V6.51504V6.50804V1.42131C11.7505 0.713793 12.1536 0.00927734 12.8608 0.00927734C13.9431 0.00927734 15.0313 0.36754 15.8625 1.01601C16.5097 1.51938 17.0168 2.21489 17.2158 3.05451C17.6359 3.12456 18.01 3.33872 18.3121 3.62192C18.7922 4.07325 19.1343 4.72573 19.3503 5.39722C19.5684 6.07872 19.6784 6.84428 19.6454 7.57982C19.6284 7.9561 19.5734 8.34038 19.4673 8.70765L19.5334 8.73767C19.9034 8.9118 20.2035 9.185 20.4276 9.54826C20.8527 10.2338 21.0027 11.2205 21.0027 12.4784C21.0027 13.9245 20.4506 14.9062 19.7404 15.5156C19.3705 15.833 18.9376 16.0684 18.4701 16.2061C18.3002 16.9883 17.9513 17.7203 17.4509 18.3447C16.7277 19.2494 15.6044 20.0139 14.0931 20.0139C13.5495 20.0115 13.0144 19.8787 12.5327 19.6266C12.0026 19.3544 11.7505 18.761 11.7505 18.1646V15.0143ZM6.99944 6.50804C6.99944 6.37533 7.05213 6.24806 7.14592 6.15422C7.23971 6.06039 7.36692 6.00767 7.49956 6.00767C7.6322 6.00767 7.7594 6.06039 7.85319 6.15422C7.94698 6.24806 7.99967 6.37533 7.99967 6.50804C7.99967 6.64074 7.94698 6.76801 7.85319 6.86185C7.7594 6.95569 7.6322 7.0084 7.49956 7.0084C7.36692 7.0084 7.23971 6.95569 7.14592 6.86185C7.05213 6.76801 6.99944 6.64074 6.99944 6.50804ZM7.49956 13.0128C7.36692 13.0128 7.23971 13.0655 7.14592 13.1594C7.05213 13.2532 6.99944 13.3805 6.99944 13.5132C6.99944 13.6459 7.05213 13.7731 7.14592 13.867C7.23971 13.9608 7.36692 14.0135 7.49956 14.0135C7.6322 14.0135 7.7594 13.9608 7.85319 13.867C7.94698 13.7731 7.99967 13.6459 7.99967 13.5132C7.99967 13.3805 7.94698 13.2532 7.85319 13.1594C7.7594 13.0655 7.6322 13.0128 7.49956 13.0128ZM15.0013 8.5095C15.0013 8.64221 15.054 8.76948 15.1478 8.86331C15.2416 8.95715 15.3688 9.00987 15.5014 9.00987C15.6341 9.00987 15.7613 8.95715 15.8551 8.86331C15.9488 8.76948 16.0015 8.64221 16.0015 8.5095C16.0015 8.3768 15.9488 8.24953 15.8551 8.15569C15.7613 8.06185 15.6341 8.00914 15.5014 8.00914C15.3688 8.00914 15.2416 8.06185 15.1478 8.15569C15.054 8.24953 15.0013 8.3768 15.0013 8.5095Z" fill="#009FAC"/>
</svg>
