<svg width="22" height="21" viewBox="0 0 22 21" fill="none" xmlns="http://www.w3.org/2000/svg">
<path d="M12.0006 17.0132V19.0137C12.0006 19.279 11.8952 19.5334 11.7076 19.721C11.5201 19.9085 11.2656 20.0139 11.0004 20.0139C10.7351 20.0139 10.4807 19.9085 10.2931 19.721C10.1055 19.5334 10.0001 19.279 10.0001 19.0137V17.0132H7.99967V19.0137C7.99967 19.279 7.89429 19.5334 7.70671 19.721C7.51913 19.9085 7.26472 20.0139 6.99944 20.0139C6.73416 20.0139 6.47975 19.9085 6.29217 19.721C6.10459 19.5334 5.99921 19.279 5.99921 19.0137V17.0132C5.99921 16.9562 6.00421 16.9012 6.01321 16.8472C5.58592 16.698 5.1978 16.4542 4.87776 16.1342C4.55772 15.8142 4.31401 15.4261 4.16478 14.9988C4.10998 15.0085 4.0544 15.0132 3.99874 15.0128H1.99828C1.733 15.0128 1.47859 14.9074 1.29101 14.7198C1.10343 14.5322 0.998047 14.2778 0.998047 14.0125C0.998047 13.7473 1.10343 13.4928 1.29101 13.3053C1.47859 13.1177 1.733 13.0123 1.99828 13.0123H3.99874V11.0118H1.99828C1.733 11.0118 1.47859 10.9065 1.29101 10.7189C1.10343 10.5313 0.998047 10.2769 0.998047 10.0116C0.998047 9.74632 1.10343 9.49191 1.29101 9.30433C1.47859 9.11675 1.733 9.01137 1.99828 9.01137H3.99874V7.0109H1.99828C1.733 7.0109 1.47859 6.90552 1.29101 6.71794C1.10343 6.53036 0.998047 6.27595 0.998047 6.01067C0.998047 5.74539 1.10343 5.49098 1.29101 5.3034C1.47859 5.11582 1.733 5.01044 1.99828 5.01044H3.99874C4.05576 5.01044 4.11077 5.01544 4.16478 5.02444C4.46485 4.16024 5.14901 3.47608 6.01321 3.17601C6.00397 3.12115 5.99928 3.06561 5.99921 3.00997V1.00951C5.99921 0.744232 6.10459 0.489819 6.29217 0.302239C6.47975 0.114659 6.73416 0.00927734 6.99944 0.00927734C7.26472 0.00927734 7.51913 0.114659 7.70671 0.302239C7.89429 0.489819 7.99967 0.744232 7.99967 1.00951V3.00997H10.0001V1.00951C10.0001 0.744232 10.1055 0.489819 10.2931 0.302239C10.4807 0.114659 10.7351 0.00927734 11.0004 0.00927734C11.2656 0.00927734 11.5201 0.114659 11.7076 0.302239C11.8952 0.489819 12.0006 0.744232 12.0006 1.00951V3.00997H14.0011V1.00951C14.0011 0.744232 14.1065 0.489819 14.294 0.302239C14.4816 0.114659 14.736 0.00927734 15.0013 0.00927734C15.2666 0.00927734 15.521 0.114659 15.7086 0.302239C15.8962 0.489819 16.0015 0.744232 16.0015 1.00951V3.00997C16.0015 3.06599 15.9965 3.122 15.9875 3.17601C16.8517 3.47608 17.5359 4.16024 17.836 5.02444C17.8908 5.01474 17.9463 5.01005 18.002 5.01044H20.0025C20.2677 5.01044 20.5222 5.11582 20.7097 5.3034C20.8973 5.49098 21.0027 5.74539 21.0027 6.01067C21.0027 6.27595 20.8973 6.53036 20.7097 6.71794C20.5222 6.90552 20.2677 7.0109 20.0025 7.0109H18.002V9.01137H20.0025C20.2677 9.01137 20.5222 9.11675 20.7097 9.30433C20.8973 9.49191 21.0027 9.74632 21.0027 10.0116C21.0027 10.2769 20.8973 10.5313 20.7097 10.7189C20.5222 10.9065 20.2677 11.0118 20.0025 11.0118H18.002V13.0123H20.0025C20.2677 13.0123 20.5222 13.1177 20.7097 13.3053C20.8973 13.4928 21.0027 13.7473 21.0027 14.0125C21.0027 14.2778 20.8973 14.5322 20.7097 14.7198C20.5222 14.9074 20.2677 15.0128 20.0025 15.0128H18.002C17.945 15.0128 17.89 15.0078 17.836 14.9988C17.6867 15.4261 17.443 15.8142 17.123 16.1342C16.8029 16.4542 16.4148 16.698 15.9875 16.8472C15.9975 16.9012 16.0015 16.9572 16.0015 17.0132V19.0137C16.0015 19.279 15.8962 19.5334 15.7086 19.721C15.521 19.9085 15.2666 20.0139 15.0013 20.0139C14.736 20.0139 14.4816 19.9085 14.294 19.721C14.1065 19.5334 14.0011 19.279 14.0011 19.0137V17.0132H12.0006ZM8.99991 7.0109C8.73463 7.0109 8.48022 7.11629 8.29264 7.30387C8.10506 7.49145 7.99967 7.74586 7.99967 8.01114V12.0121C7.99967 12.2773 8.10506 12.5318 8.29264 12.7193C8.48022 12.9069 8.73463 13.0123 8.99991 13.0123H13.0008C13.2661 13.0123 13.5205 12.9069 13.7081 12.7193C13.8957 12.5318 14.0011 12.2773 14.0011 12.0121V8.01114C14.0011 7.74586 13.8957 7.49145 13.7081 7.30387C13.5205 7.11629 13.2661 7.0109 13.0008 7.0109H8.99991Z" fill="#009FAC"/>
</svg>
