<svg width="22" height="21" viewBox="0 0 22 21" fill="none" xmlns="http://www.w3.org/2000/svg">
<path d="M15.7106 9.46638L17.4552 7.72142L13.2881 3.55353L11.5435 5.29849L6.94307 0.708251C6.07632 -0.158671 4.66507 -0.158671 3.79832 0.708251L1.687 2.81998C0.820252 3.6869 0.820252 5.09843 1.687 5.96535L6.27634 10.5556L0.998047 15.846V20.0139H5.16512L10.4545 14.7235L15.0438 19.3137C16.0995 20.3696 17.5219 19.9806 18.1886 19.3137L20.2999 17.202C21.1667 16.3351 21.1667 14.9235 20.2999 14.0566L15.7106 9.46638ZM7.86538 8.97735L3.26493 4.38711L5.36514 2.27538L6.77638 3.6869L5.46515 5.00952L7.03196 6.57664L8.35431 5.25403L9.96558 6.86562L7.86538 8.97735ZM16.6218 17.7466L12.0324 13.1564L14.1438 11.0446L15.755 12.6562L14.4327 13.9788L15.9995 15.5459L17.3218 14.2233L18.7331 15.6349L16.6218 17.7466ZM20.6777 4.49825C20.7807 4.39543 20.8625 4.2733 20.9182 4.13884C20.974 4.00439 21.0027 3.86025 21.0027 3.71469C21.0027 3.56913 20.974 3.42499 20.9182 3.29054C20.8625 3.15608 20.7807 3.03395 20.6777 2.93113L18.0775 0.330362C17.5552 -0.192014 16.8329 0.00804492 16.5107 0.330362L14.4771 2.36429L18.6442 6.53219L20.6777 4.49825Z" fill="#009FAC"/>
</svg>
