<svg width="24" height="22" viewBox="0 0 24 22" fill="none" xmlns="http://www.w3.org/2000/svg">
<path d="M12.0004 0.244141C12.5394 0.244141 13.0564 0.467301 13.4376 0.864529C13.8188 1.26176 14.0329 1.80051 14.0329 2.36228C14.0329 3.14599 13.6264 3.83439 13.0166 4.19447V5.53949H14.0329C15.9197 5.53949 17.7291 6.32055 19.0632 7.71085C20.3974 9.10115 21.1469 10.9868 21.1469 12.953H22.1632C22.4327 12.953 22.6912 13.0646 22.8818 13.2632C23.0724 13.4618 23.1794 13.7312 23.1794 14.012V17.1893C23.1794 17.4701 23.0724 17.7395 22.8818 17.9381C22.6912 18.1367 22.4327 18.2483 22.1632 18.2483H21.1469V19.3074C21.1469 19.8692 20.9327 20.4079 20.5515 20.8051C20.1704 21.2024 19.6534 21.4255 19.1143 21.4255H4.88641C4.34734 21.4255 3.83035 21.2024 3.44917 20.8051C3.06799 20.4079 2.85385 19.8692 2.85385 19.3074V18.2483H1.83757C1.56803 18.2483 1.30954 18.1367 1.11895 17.9381C0.928361 17.7395 0.821289 17.4701 0.821289 17.1893V14.012C0.821289 13.7312 0.928361 13.4618 1.11895 13.2632C1.30954 13.0646 1.56803 12.953 1.83757 12.953H2.85385C2.85385 10.9868 3.60335 9.10115 4.93748 7.71085C6.2716 6.32055 8.08106 5.53949 9.9678 5.53949H10.9841V4.19447C10.3743 3.83439 9.9678 3.14599 9.9678 2.36228C9.9678 1.80051 10.1819 1.26176 10.5631 0.864529C10.9443 0.467301 11.4613 0.244141 12.0004 0.244141ZM7.4271 11.8939C6.75327 11.8939 6.10703 12.1729 5.63056 12.6694C5.15409 13.1659 4.88641 13.8394 4.88641 14.5416C4.88641 15.2438 5.15409 15.9172 5.63056 16.4138C6.10703 16.9103 6.75327 17.1893 7.4271 17.1893C8.10094 17.1893 8.74717 16.9103 9.22365 16.4138C9.70012 15.9172 9.9678 15.2438 9.9678 14.5416C9.9678 13.8394 9.70012 13.1659 9.22365 12.6694C8.74717 12.1729 8.10094 11.8939 7.4271 11.8939ZM16.5736 11.8939C15.8998 11.8939 15.2535 12.1729 14.7771 12.6694C14.3006 13.1659 14.0329 13.8394 14.0329 14.5416C14.0329 15.2438 14.3006 15.9172 14.7771 16.4138C15.2535 16.9103 15.8998 17.1893 16.5736 17.1893C17.2474 17.1893 17.8937 16.9103 18.3702 16.4138C18.8466 15.9172 19.1143 15.2438 19.1143 14.5416C19.1143 13.8394 18.8466 13.1659 18.3702 12.6694C17.8937 12.1729 17.2474 11.8939 16.5736 11.8939Z" fill="#009FAC"/>
</svg>
